HIERARCHY
ROOT newVegas:Hips
{
	OFFSET 0.000000 96.479958 0.000000
	CHANNELS 6 Xposition Yposition Zposition Xrotation Yrotation Zrotation
	JOINT newVegas:Pelvis
	{
		OFFSET 0.000000 0.000000 0.000000
		CHANNELS 3 Xrotation Yrotation Zrotation
		JOINT newVegas:LeftUpLeg
		{
			OFFSET 18.735201 -5.666702 -4.541200
			CHANNELS 3 Xrotation Yrotation Zrotation
			JOINT newVegas:LeftLeg
			{
				OFFSET -0.021200 -31.938179 0.493100
				CHANNELS 3 Xrotation Yrotation Zrotation
				JOINT newVegas:LeftFoot
				{
					OFFSET 0.021200 -31.938179 -4.336299
					CHANNELS 3 Xrotation Yrotation Zrotation
					JOINT newVegas:LeftToeBase
					{
						OFFSET 0.943001 -26.722000 15.023500
						CHANNELS 3 Xrotation Yrotation Zrotation
						End Site
						{
							OFFSET 0.000000 30.670183 0.000000
						}
					}
				}
				JOINT newVegas:Left_PantLeg
				{
					OFFSET 0.663870 -9.044666 -1.108900
					CHANNELS 3 Xrotation Yrotation Zrotation
					End Site
					{
						OFFSET 1.415995 20.635357 0.000000
					}
				}
			}
		}
		JOINT newVegas:RightUpLeg
		{
			OFFSET -18.735201 -5.666702 -4.541200
			CHANNELS 3 Xrotation Yrotation Zrotation
			JOINT newVegas:RightLeg
			{
				OFFSET 0.018946 -31.938133 0.493100
				CHANNELS 3 Xrotation Yrotation Zrotation
				JOINT newVegas:RightFoot
				{
					OFFSET -0.018946 -31.938126 -4.336299
					CHANNELS 3 Xrotation Yrotation Zrotation
					JOINT newVegas:RightToeBase
					{
						OFFSET -0.943001 -26.722004 15.023500
						CHANNELS 3 Xrotation Yrotation Zrotation
						End Site
						{
							OFFSET 0.000000 30.670187 0.000000
						}
					}
				}
				JOINT newVegas:Right_PantLeg
				{
					OFFSET -0.661674 -9.044716 -1.108900
					CHANNELS 3 Xrotation Yrotation Zrotation
					End Site
					{
						OFFSET -1.415958 20.635269 0.000000
					}
				}
			}
		}
	}
	JOINT newVegas:Spine
	{
		OFFSET 0.000000 10.199997 -0.299500
		CHANNELS 3 Xrotation Yrotation Zrotation
		JOINT newVegas:Spine1
		{
			OFFSET 0.000000 11.900002 -1.516600
			CHANNELS 3 Xrotation Yrotation Zrotation
			JOINT newVegas:Spine2
			{
				OFFSET 0.000000 13.600006 -2.842500
				CHANNELS 3 Xrotation Yrotation Zrotation
				JOINT newVegas:Neck
				{
					OFFSET 0.000000 9.624100 -2.890100
					CHANNELS 3 Xrotation Yrotation Zrotation
					JOINT newVegas:Head
					{
						OFFSET 0.000000 14.068802 -1.351900
						CHANNELS 3 Xrotation Yrotation Zrotation
						JOINT newVegas:Hair_Back
						{
							OFFSET 0.000000 3.231903 -17.524799
							CHANNELS 3 Xrotation Yrotation Zrotation
							End Site
							{
								OFFSET 0.000000 19.849884 0.000000
							}
						}
						JOINT newVegas:Hair_Front
						{
							OFFSET 0.000000 31.260406 4.573800
							CHANNELS 3 Xrotation Yrotation Zrotation
							JOINT newVegas:Hair_Front1
							{
								OFFSET 0.000000 2.284103 11.993300
								CHANNELS 3 Xrotation Yrotation Zrotation
								JOINT newVegas:Hair_Front2
								{
									OFFSET 0.000000 2.284103 11.993300
									CHANNELS 3 Xrotation Yrotation Zrotation
									End Site
									{
										OFFSET 0.000000 12.208862 0.000000
									}
								}
							}
						}
						JOINT newVegas:Jowel
						{
							OFFSET 0.000000 -7.458206 6.864100
							CHANNELS 3 Xrotation Yrotation Zrotation
							End Site
							{
								OFFSET 0.000000 19.849884 0.000000
							}
						}
					}
				}
				JOINT newVegas:LeftShoulder
				{
					OFFSET 15.263000 10.923401 -0.547700
					CHANNELS 3 Xrotation Yrotation Zrotation
					JOINT newVegas:LeftArm
					{
						OFFSET 25.438599 -2.830597 -13.032500
						CHANNELS 3 Xrotation Yrotation Zrotation
						JOINT newVegas:LeftForeArm
						{
							OFFSET 29.960503 0.000000 0.000000
							CHANNELS 3 Xrotation Yrotation Zrotation
							JOINT newVegas:LeftHand
							{
								OFFSET 27.849251 0.000000 0.000000
								CHANNELS 3 Xrotation Yrotation Zrotation
								JOINT newVegas:LeftHandThumb1
								{
									OFFSET 4.487587 -3.305161 6.305391
									CHANNELS 3 Xrotation Yrotation Zrotation
									JOINT newVegas:LeftHandThumb2
									{
										OFFSET 5.480453 -3.164139 3.164143
										CHANNELS 3 Xrotation Yrotation Zrotation
										JOINT newVegas:LeftHandThumb3
										{
											OFFSET 5.159721 -2.978973 2.978967
											CHANNELS 3 Xrotation Yrotation Zrotation
											End Site
											{
												OFFSET 2.494507 5.926697 1.738678
											}
										}
									}
								}
								JOINT newVegas:LeftHandIndex1
								{
									OFFSET 18.578728 -0.527832 5.208049
									CHANNELS 3 Xrotation Yrotation Zrotation
									JOINT newVegas:LeftHandIndex2
									{
										OFFSET 3.192009 0.000000 0.000000
										CHANNELS 3 Xrotation Yrotation Zrotation
										JOINT newVegas:LeftHandIndex3
										{
											OFFSET 3.835129 0.000000 0.000000
											CHANNELS 3 Xrotation Yrotation Zrotation
											End Site
											{
												OFFSET -0.034599 3.816971 0.371180
											}
										}
									}
								}
								JOINT newVegas:LeftHandMiddle1
								{
									OFFSET 18.476105 0.000000 0.000000
									CHANNELS 3 Xrotation Yrotation Zrotation
									JOINT newVegas:LeftHandMiddle2
									{
										OFFSET 3.324875 0.000000 0.000000
										CHANNELS 3 Xrotation Yrotation Zrotation
										JOINT newVegas:LeftHandMiddle3
										{
											OFFSET 4.596550 0.000000 0.000000
											CHANNELS 3 Xrotation Yrotation Zrotation
											End Site
											{
												OFFSET 0.057701 4.578827 0.399218
											}
										}
									}
								}
								JOINT newVegas:LeftHandRing1
								{
									OFFSET 17.732719 0.121887 -4.201567
									CHANNELS 3 Xrotation Yrotation Zrotation
									JOINT newVegas:LeftHandRing2
									{
										OFFSET 2.733170 0.000000 0.000000
										CHANNELS 3 Xrotation Yrotation Zrotation
										JOINT newVegas:LeftHandRing3
										{
											OFFSET 3.178268 0.000000 0.000000
											CHANNELS 3 Xrotation Yrotation Zrotation
											End Site
											{
												OFFSET 0.119102 3.170624 0.185394
											}
										}
									}
								}
								JOINT newVegas:LeftHandPinky1
								{
									OFFSET 15.989624 -0.606689 -7.535461
									CHANNELS 3 Xrotation Yrotation Zrotation
									JOINT newVegas:LeftHandPinky2
									{
										OFFSET 2.538986 0.000000 0.000000
										CHANNELS 3 Xrotation Yrotation Zrotation
										JOINT newVegas:LeftHandPinky3
										{
											OFFSET 2.593102 0.000000 0.000000
											CHANNELS 3 Xrotation Yrotation Zrotation
											End Site
											{
												OFFSET -0.150902 2.584198 0.152708
											}
										}
									}
								}
							}
							JOINT newVegas:Left_Sleeve
							{
								OFFSET 0.267448 -0.649796 0.577675
								CHANNELS 3 Xrotation Yrotation Zrotation
								End Site
								{
									OFFSET 0.000000 15.991241 0.000000
								}
							}
							JOINT newVegas:Left_CapeC
							{
								OFFSET 15.715958 -8.608795 -6.935905
								CHANNELS 3 Xrotation Yrotation Zrotation
								JOINT newVegas:Left_CapeC1
								{
									OFFSET 0.000000 -8.688499 0.000000
									CHANNELS 3 Xrotation Yrotation Zrotation
									End Site
									{
										OFFSET 0.000000 8.688499 0.000000
									}
								}
							}
						}
						JOINT newVegas:Left_CapeB
						{
							OFFSET 26.118385 -8.608795 -7.079235
							CHANNELS 3 Xrotation Yrotation Zrotation
							JOINT newVegas:Left_CapeB1
							{
								OFFSET 0.000000 -8.688499 0.000000
								CHANNELS 3 Xrotation Yrotation Zrotation
								End Site
								{
									OFFSET 0.000000 8.688499 0.000000
								}
							}
						}
						JOINT newVegas:Left_CapeA
						{
							OFFSET 5.115639 -8.608795 -10.395809
							CHANNELS 3 Xrotation Yrotation Zrotation
							JOINT newVegas:Left_CapeA1
							{
								OFFSET 0.000000 -8.688499 0.000000
								CHANNELS 3 Xrotation Yrotation Zrotation
								End Site
								{
									OFFSET 0.000000 8.688499 0.000000
								}
							}
						}
					}
				}
				JOINT newVegas:RightShoulder
				{
					OFFSET -15.263000 10.923401 -0.547700
					CHANNELS 3 Xrotation Yrotation Zrotation
					JOINT newVegas:RightArm
					{
						OFFSET -25.438599 -2.830597 -13.032500
						CHANNELS 3 Xrotation Yrotation Zrotation
						JOINT newVegas:RightForeArm
						{
							OFFSET -29.960503 0.000000 0.000000
							CHANNELS 3 Xrotation Yrotation Zrotation
							JOINT newVegas:RightHand
							{
								OFFSET -27.849251 0.000000 0.000000
								CHANNELS 3 Xrotation Yrotation Zrotation
								JOINT newVegas:RightHandThumb1
								{
									OFFSET -4.487587 -3.305161 6.305391
									CHANNELS 3 Xrotation Yrotation Zrotation
									JOINT newVegas:RightHandThumb2
									{
										OFFSET -5.480453 -3.164139 3.164143
										CHANNELS 3 Xrotation Yrotation Zrotation
										JOINT newVegas:RightHandThumb3
										{
											OFFSET -5.159721 -2.978973 2.978967
											CHANNELS 3 Xrotation Yrotation Zrotation
											End Site
											{
												OFFSET -2.494507 5.926697 1.738678
											}
										}
									}
								}
								JOINT newVegas:RightHandIndex1
								{
									OFFSET -18.578728 -0.527832 5.208049
									CHANNELS 3 Xrotation Yrotation Zrotation
									JOINT newVegas:RightHandIndex2
									{
										OFFSET -3.192009 0.000000 0.000000
										CHANNELS 3 Xrotation Yrotation Zrotation
										JOINT newVegas:RightHandIndex3
										{
											OFFSET -3.835129 0.000000 0.000000
											CHANNELS 3 Xrotation Yrotation Zrotation
											End Site
											{
												OFFSET 0.034599 3.816971 0.371180
											}
										}
									}
								}
								JOINT newVegas:RightHandMiddle1
								{
									OFFSET -18.476105 0.000000 0.000000
									CHANNELS 3 Xrotation Yrotation Zrotation
									JOINT newVegas:RightHandMiddle2
									{
										OFFSET -3.324875 0.000000 0.000000
										CHANNELS 3 Xrotation Yrotation Zrotation
										JOINT newVegas:RightHandMiddle3
										{
											OFFSET -4.596550 0.000000 0.000000
											CHANNELS 3 Xrotation Yrotation Zrotation
											End Site
											{
												OFFSET -0.057701 4.578827 0.399218
											}
										}
									}
								}
								JOINT newVegas:RightHandRing1
								{
									OFFSET -17.732719 0.121887 -4.201567
									CHANNELS 3 Xrotation Yrotation Zrotation
									JOINT newVegas:RightHandRing2
									{
										OFFSET -2.733170 0.000000 0.000000
										CHANNELS 3 Xrotation Yrotation Zrotation
										JOINT newVegas:RightHandRing3
										{
											OFFSET -3.178268 0.000000 0.000000
											CHANNELS 3 Xrotation Yrotation Zrotation
											End Site
											{
												OFFSET -0.119102 3.170624 0.185394
											}
										}
									}
								}
								JOINT newVegas:RightHandPinky1
								{
									OFFSET -15.989624 -0.606689 -7.535461
									CHANNELS 3 Xrotation Yrotation Zrotation
									JOINT newVegas:RightHandPinky2
									{
										OFFSET -2.538986 0.000000 0.000000
										CHANNELS 3 Xrotation Yrotation Zrotation
										JOINT newVegas:RightHandPinky3
										{
											OFFSET -2.593102 0.000000 0.000000
											CHANNELS 3 Xrotation Yrotation Zrotation
											End Site
											{
												OFFSET 0.150902 2.584198 0.152708
											}
										}
									}
								}
							}
							JOINT newVegas:Right_CapeC
							{
								OFFSET -15.715958 -8.608795 -6.935905
								CHANNELS 3 Xrotation Yrotation Zrotation
								JOINT newVegas:Right_CapeC1
								{
									OFFSET 0.000000 -8.688499 0.000000
									CHANNELS 3 Xrotation Yrotation Zrotation
									End Site
									{
										OFFSET 0.000000 8.688499 0.000000
									}
								}
							}
							JOINT newVegas:Right_Sleeve
							{
								OFFSET -0.267448 -0.649994 0.577675
								CHANNELS 3 Xrotation Yrotation Zrotation
								End Site
								{
									OFFSET 0.000000 15.991302 0.000000
								}
							}
						}
						JOINT newVegas:Right_CapeA
						{
							OFFSET -5.115540 -8.608795 -10.395824
							CHANNELS 3 Xrotation Yrotation Zrotation
							JOINT newVegas:Right_CapeA1
							{
								OFFSET 0.000000 -8.688499 0.000000
								CHANNELS 3 Xrotation Yrotation Zrotation
								End Site
								{
									OFFSET 0.000000 8.688499 0.000000
								}
							}
						}
						JOINT newVegas:Right_CapeB
						{
							OFFSET -26.118187 -8.608795 -7.079266
							CHANNELS 3 Xrotation Yrotation Zrotation
							JOINT newVegas:Right_CapeB1
							{
								OFFSET 0.000000 -8.688499 0.000000
								CHANNELS 3 Xrotation Yrotation Zrotation
								End Site
								{
									OFFSET 0.000000 8.688499 0.000000
								}
							}
						}
					}
				}
				JOINT newVegas:Left_Collar
				{
					OFFSET 18.625099 8.655502 8.828100
					CHANNELS 3 Xrotation Yrotation Zrotation
					JOINT newVegas:Left_Collar1
					{
						OFFSET 14.783401 10.540405 -1.259500
						CHANNELS 3 Xrotation Yrotation Zrotation
						End Site
						{
							OFFSET 0.000000 18.199875 0.000000
						}
					}
				}
				JOINT newVegas:Collar_Back
				{
					OFFSET 0.000000 15.630707 -20.132601
					CHANNELS 3 Xrotation Yrotation Zrotation
					End Site
					{
						OFFSET 0.000000 22.523010 0.000000
					}
				}
				JOINT newVegas:Left_Peck
				{
					OFFSET 17.239599 -5.132599 25.482599
					CHANNELS 3 Xrotation Yrotation Zrotation
					End Site
					{
						OFFSET 0.000000 22.523010 0.000000
					}
				}
				JOINT newVegas:Right_Peck
				{
					OFFSET -17.239599 -5.132202 25.482599
					CHANNELS 3 Xrotation Yrotation Zrotation
					End Site
					{
						OFFSET 0.000000 22.523010 0.000000
					}
				}
				JOINT newVegas:Right_Collar
				{
					OFFSET -18.625099 8.655792 8.828100
					CHANNELS 3 Xrotation Yrotation Zrotation
					JOINT newVegas:Right_Collar1
					{
						OFFSET -14.783401 10.539993 -1.259500
						CHANNELS 3 Xrotation Yrotation Zrotation
						End Site
						{
							OFFSET 0.000000 18.199631 0.000000
						}
					}
				}
			}
		}
		JOINT newVegas:Belly
		{
			OFFSET 0.000000 -6.540398 9.014299
			CHANNELS 3 Xrotation Yrotation Zrotation
			End Site
			{
				OFFSET 0.000000 11.566666 0.000000
			}
		}
	}
	JOINT newVegas:ElvisFacialAnim_Joint
	{
		OFFSET 1.000000 -95.330101 -8.825800
		CHANNELS 3 Xrotation Yrotation Zrotation
		End Site
		{
			OFFSET 0.000000 35.315800 0.000000
		}
	}
}
MOTION
Frames: 4
Frame Time: 0.033333
-13.251728 11.164719 -134.486389 -264.857906 -28.418833 4.752252 -0.000000 0.000001 -0.000001 -2.551601 8.446179 16.772612 10.957214 4.298130 1.478805 8.034276 -0.343867 -10.254590 0.000000 -0.000000 -0.000001 0.000001 0.000001 -0.000001 -56.462131 8.959307 -14.271761 64.377880 -12.213409 8.427319 6.075304 -29.152508 -0.463307 0.000001 -0.000000 0.000001 0.000000 0.000001 -0.000001 1.206460 2.836201 4.724511 1.919806 6.848536 -0.063688 1.824437 6.875824 0.005912 -2.257700 -3.802859 4.859587 -2.257739 -3.802857 4.859591 0.000000 0.000001 -0.000001 -2.257742 -3.802862 4.859582 -2.257657 -3.802864 4.859601 0.000001 0.000000 0.000002 0.000000 0.000001 0.000001 -9.740307 3.093348 25.285287 -54.033531 37.951489 -1.790319 -0.000001 -121.341179 -0.000000 -3.503691 -22.622155 18.096509 -22.981710 -12.208588 28.984861 -1.206689 22.537572 0.715195 0.000001 -0.000005 -0.000005 6.313816 -4.032265 12.758869 0.009796 0.339008 -3.310134 0.000001 0.000003 0.000000 -0.495973 3.208535 17.798097 0.194094 1.496948 -14.774346 -0.000001 0.000003 0.000001 -0.653073 5.358248 11.550761 0.007041 0.287413 -2.805918 -0.000000 -0.000002 -0.000001 -3.209715 18.417532 12.212263 0.042942 0.708758 -6.933557 -0.000000 0.000000 0.000000 0.000002 0.000003 0.000000 0.000002 0.000003 0.000000 0.000002 0.000003 0.000000 0.000003 -0.000001 0.000000 0.000003 -0.000001 -0.000001 0.000003 -0.000001 0.000000 0.000003 -0.000001 -0.000000 2.241536 -6.206278 23.224621 -79.981925 49.277687 20.093522 0.000004 38.326155 -0.000006 -9.982466 9.439227 -21.154086 -33.227764 11.823206 -6.662763 4.327416 -20.001881 -9.483524 -0.000000 -0.000004 -0.000001 2.260348 4.384570 -1.881917 -0.000003 -0.000015 0.000012 0.000000 -0.000000 0.000000 0.346300 1.730949 -4.302340 0.000002 0.000010 0.000005 0.000000 -0.000002 -0.000000 0.043038 -2.919089 -0.465671 -0.000001 -0.000001 0.000003 0.000000 -0.000003 -0.000001 -1.164555 -6.220293 -2.886460 -0.000001 -0.000016 0.000003 0.000000 0.000005 0.000000 0.000003 0.000001 0.000000 0.000000 -0.000004 0.000002 0.000003 0.000001 0.000002 -0.000003 0.000002 -0.000001 -0.000003 0.000003 -0.000001 -0.000003 0.000002 -0.000001 -0.000003 0.000003 -0.000002 0.000000 -0.000001 0.000000 0.000000 -0.000001 0.000000 0.000000 -0.000001 0.000000 0.000000 -0.000001 0.000000 0.000000 -0.000001 0.000000 0.000000 -0.000001 0.000000 0.000000 -0.000001 0.000000 -0.000001 0.000000 -0.000000 -0.000000 0.000001 -0.000001 
-11.938504 11.714066 -137.658096 -264.387689 -29.112715 5.656637 -0.000000 0.000001 0.000000 -2.191431 8.557579 14.172400 9.845934 0.804875 1.652951 13.572020 -4.516754 -8.884400 0.000003 0.000001 -0.000001 0.000000 0.000000 -0.000002 -55.160953 5.646885 -19.844485 54.954469 -11.789145 7.465634 10.699455 -29.314004 7.881562 -0.000000 0.000000 0.000000 -0.000000 -0.000000 -0.000000 1.468717 3.044995 5.089641 2.620039 6.858383 0.148566 2.524217 6.892492 0.204105 -1.278571 -4.008266 5.942553 -1.278574 -4.008256 5.942549 0.000000 0.000002 -0.000004 -1.278570 -4.008256 5.942552 -1.278544 -4.008258 5.942549 -0.000000 0.000001 -0.000004 0.000000 0.000002 -0.000002 -8.966244 3.036855 23.803916 -57.145690 40.804250 0.605764 0.000064 -120.220646 0.000052 -6.957104 -26.001381 19.763888 -22.487481 -11.913737 27.963703 -0.847922 23.560686 -0.117475 -0.000002 -0.000002 -0.000005 6.277766 -3.925319 12.215967 0.016334 0.437638 -4.274669 -0.000001 0.000000 0.000000 -0.482529 3.284525 17.060805 0.197647 1.510370 -14.909753 -0.000001 0.000001 -0.000000 -0.631880 5.419892 11.109375 0.010192 0.345821 -3.376671 -0.000002 -0.000004 -0.000001 -3.522725 17.989905 13.512806 0.071421 0.912938 -8.945817 0.000001 -0.000003 -0.000002 0.000000 0.000002 0.000002 0.000000 0.000002 0.000002 -0.000000 0.000003 0.000002 -0.000000 0.000000 0.000000 -0.000000 0.000000 0.000000 -0.000000 0.000000 0.000000 0.000000 -0.000000 -0.000000 1.912357 -5.904948 21.807044 -84.025800 49.990544 23.225140 0.000003 36.236025 0.000004 -7.106807 9.454268 -20.691126 -33.089493 11.797504 -6.512416 4.748919 -19.760449 -9.835276 -0.000001 0.000000 0.000003 2.187484 4.300279 -2.012827 0.000001 0.000013 -0.000001 0.000001 -0.000000 -0.000000 0.341320 1.638762 -4.341240 0.000000 0.000002 0.000001 0.000000 -0.000001 0.000000 0.039575 -3.035459 -0.655770 0.000001 -0.000006 -0.000001 -0.000000 -0.000003 -0.000000 -1.146942 -6.230567 -2.970830 -0.000001 -0.000004 -0.000001 -0.000000 -0.000000 -0.000000 0.000002 -0.000001 -0.000000 -0.000000 -0.000002 0.000001 0.000002 -0.000001 -0.000003 -0.000000 0.000003 0.000000 -0.000000 0.000003 0.000000 -0.000000 0.000003 0.000000 -0.000000 0.000003 0.000000 0.000001 -0.000001 0.000000 0.000001 -0.000001 0.000000 0.000001 -0.000001 0.000000 0.000001 -0.000001 0.000000 0.000001 -0.000001 0.000000 0.000001 -0.000001 0.000000 0.000001 -0.000001 0.000000 -0.000001 0.000001 -0.000001 -0.000000 0.000001 0.000000 
-11.262486 11.264526 -141.590820 -266.325250 -30.798365 6.635514 0.000000 0.000001 -0.000000 3.280847 9.490087 9.503974 8.333323 -2.124951 2.000753 19.307888 -7.208410 -6.574571 0.000001 -0.000003 -0.000001 -0.000001 -0.000000 0.000003 -51.151304 7.753399 -23.831035 50.433294 -11.268272 6.524985 19.001641 -28.182715 25.775990 -0.000000 0.000000 0.000000 0.000000 -0.000001 -0.000001 1.682670 3.156130 5.342622 3.157147 6.949641 0.570576 3.061447 6.986584 0.619014 0.333907 -4.046420 5.626021 0.333921 -4.046422 5.626025 -0.000000 0.000000 -0.000001 0.333916 -4.046393 5.626011 0.333880 -4.046457 5.626011 -0.000001 -0.000002 0.000001 -0.000000 0.000000 -0.000001 -8.152519 2.978119 22.248549 -54.447550 40.273288 -0.917470 0.000034 -116.955597 0.000032 -5.595785 -27.331444 23.253423 -21.963810 -11.631507 26.886975 -0.489091 24.568206 -0.952528 0.000000 -0.000005 -0.000005 6.242589 -3.815544 11.617634 0.024475 0.535529 -5.233267 -0.000000 0.000001 -0.000002 -0.466806 3.366152 16.261748 0.200615 1.521486 -15.022047 -0.000001 -0.000001 0.000001 -0.607323 5.487902 10.614861 0.013937 0.404214 -3.947435 0.000001 0.000001 0.000000 -3.800500 17.555541 14.744073 0.106835 1.114887 -10.947128 0.000002 0.000003 0.000002 0.000001 0.000002 0.000001 0.000001 0.000002 0.000001 0.000000 0.000002 0.000000 -0.000000 0.000000 -0.000000 -0.000000 0.000000 -0.000001 -0.000000 0.000000 -0.000000 -0.000000 0.000000 -0.000000 1.428470 -5.141553 20.199304 -87.557254 51.236831 29.234606 0.000002 33.633576 -0.000001 -1.723364 11.680118 -21.302399 -32.949044 11.772232 -6.360855 5.190892 -19.520705 -10.188389 -0.000001 0.000000 -0.000000 2.122067 4.231825 -2.110001 0.000001 0.000016 0.000014 -0.000000 -0.000001 0.000000 0.332918 1.541671 -4.332074 0.000001 -0.000005 0.000001 0.000001 0.000001 -0.000000 0.035727 -3.159982 -0.814050 0.000001 0.000001 -0.000002 -0.000000 0.000002 -0.000000 -1.129062 -6.244719 -3.008271 -0.000001 0.000002 -0.000000 0.000000 -0.000000 -0.000000 0.000000 -0.000001 -0.000000 -0.000000 -0.000006 0.000000 -0.000000 -0.000001 -0.000000 -0.000001 -0.000002 -0.000003 -0.000001 -0.000001 -0.000002 -0.000001 -0.000002 -0.000003 -0.000001 -0.000000 -0.000002 -0.000000 0.000000 -0.000000 -0.000000 0.000000 -0.000000 -0.000000 0.000000 -0.000000 -0.000000 0.000000 -0.000000 -0.000000 0.000000 -0.000000 -0.000000 0.000000 -0.000000 -0.000000 0.000000 -0.000000 0.000000 -0.000000 0.000000 0.000000 0.000001 -0.000000 
-10.570067 10.265083 -144.835617 -267.522910 -32.080053 7.540745 -0.000000 0.000002 0.000000 7.643063 9.554860 5.578206 5.974934 -3.778715 2.674008 23.623198 -6.871169 -4.525156 0.000002 0.000002 0.000001 -0.000000 0.000001 0.000002 -53.799276 8.708126 -26.303689 51.130632 -9.126894 5.455222 28.791440 -25.640966 28.225301 0.000000 -0.000000 -0.000001 0.000001 0.000002 -0.000000 1.465230 3.107236 5.426367 2.702130 7.100685 0.947529 2.607197 7.127149 1.002836 2.057364 -4.097103 5.455865 2.057390 -4.097101 5.455860 -0.000001 0.000001 -0.000000 2.057328 -4.097147 5.455870 2.057463 -4.097079 5.455883 0.000000 -0.000002 -0.000003 -0.000001 0.000001 -0.000000 -7.298569 2.935042 20.622506 -51.369815 37.265942 -2.573049 0.000036 -111.936624 0.000037 -3.047979 -27.374485 27.200144 -21.438714 -11.383744 25.802947 -0.161339 25.474324 -1.716776 0.000003 -0.000000 -0.000001 6.208819 -3.704277 10.976620 0.033209 0.623558 -6.096414 0.000002 -0.000004 -0.000001 -0.449027 3.450879 15.423153 0.201872 1.526141 -15.069305 0.000000 0.000004 0.000001 -0.579854 5.559986 10.081072 0.017768 0.456449 -4.458751 0.000000 -0.000002 0.000000 -4.013452 17.153679 15.772951 0.144777 1.295671 -12.750724 -0.000001 -0.000002 -0.000002 0.000001 0.000002 -0.000001 0.000001 0.000002 -0.000001 0.000001 0.000002 -0.000002 -0.000000 -0.000001 0.000000 -0.000000 -0.000001 0.000000 -0.000000 -0.000001 0.000000 -0.000002 -0.000001 0.000000 0.921675 -4.121169 18.442631 -93.721677 53.364302 37.200612 0.000001 26.142447 0.000004 3.377333 15.349324 -23.119613 -32.806853 11.748883 -6.206978 5.647881 -19.283977 -10.540506 0.000001 -0.000000 -0.000001 2.063551 4.176685 -2.173723 0.000000 -0.000003 -0.000001 -0.000001 -0.000000 0.000000 0.321495 1.440066 -4.276980 -0.000001 -0.000002 0.000001 0.000000 -0.000000 -0.000000 0.031688 -3.291079 -0.939956 0.000001 -0.000004 0.000021 -0.000000 -0.000003 -0.000000 -1.110927 -6.262506 -3.000905 0.000002 0.000003 0.000032 0.000000 0.000003 -0.000000 -0.000001 0.000000 0.000001 -0.000001 0.000000 0.000001 -0.000001 0.000000 0.000001 -0.000000 0.000001 0.000003 -0.000000 0.000002 0.000001 -0.000000 0.000001 0.000003 -0.000000 0.000002 0.000001 -0.000000 0.000001 -0.000002 -0.000000 0.000001 -0.000002 -0.000000 0.000001 -0.000002 -0.000000 0.000001 -0.000002 -0.000000 0.000001 -0.000002 -0.000000 0.000001 -0.000002 -0.000000 0.000001 -0.000002 0.000000 0.000001 -0.000001 -0.000000 0.000002 0.000000 
